<?xml version="1.0" standalone="no"?>
<!DOCTYPE svg PUBLIC "-//W3C//DTD SVG 20010904//EN"
 "http://www.w3.org/TR/2001/REC-SVG-20010904/DTD/svg10.dtd">
<svg version="1.0" xmlns="http://www.w3.org/2000/svg"
 width="2000.000000pt" height="2000.000000pt" viewBox="0 0 2000.000000 2000.000000"
 preserveAspectRatio="xMidYMid meet">

<g transform="translate(0.000000,2000.000000) scale(0.100000,-0.100000)"
fill="#000000" stroke="none">
<path d="M6823 14452 c-166 -26 -304 -50 -307 -53 -5 -5 288 -128 869 -365
l80 -32 330 59 c182 32 337 59 345 59 15 1 -191 88 -219 93 -8 1 -18 -13 -25
-38 -15 -53 -42 -65 -146 -65 -190 0 -430 96 -430 172 0 13 9 55 19 94 l18 70
-61 24 c-34 13 -86 25 -116 26 -30 2 -191 -18 -357 -44z"/>
<path d="M7823 14036 c-172 -34 -314 -64 -316 -67 -2 -2 -64 -220 -137 -484
-73 -264 -139 -500 -147 -523 -8 -24 -13 -45 -11 -47 2 -1 37 1 78 4 l74 6 43
83 c57 111 93 161 176 249 111 117 276 213 415 243 l58 12 53 271 c29 150 55
282 58 295 4 17 1 22 -13 21 -11 -1 -160 -29 -331 -63z"/>
<path d="M13365 10968 c-44 -28 -147 -86 -230 -129 -623 -323 -1422 -521
-2395 -594 -1007 -75 -2278 -12 -3440 170 -754 119 -1152 155 -1466 135 -317
-20 -502 -82 -645 -217 -111 -105 -158 -215 -166 -393 -9 -197 43 -338 176
-470 147 -147 350 -238 651 -291 131 -24 422 -36 545 -24 l80 8 -50 15 c-190
57 -479 159 -583 205 -222 100 -375 211 -441 321 -42 71 -53 170 -28 257 39
131 169 190 469 208 129 8 411 1 553 -14 233 -24 423 -47 436 -53 26 -11 -519
-2574 -556 -2610 -9 -9 -464 180 -790 328 -235 108 -650 316 -845 426 -85 48
-198 107 -250 132 -577 273 -1205 302 -1661 77 -129 -64 -204 -118 -309 -225
-145 -147 -231 -310 -277 -520 -27 -128 -25 -387 5 -539 120 -597 497 -1057
1117 -1361 427 -209 872 -312 1355 -313 399 -1 687 62 1000 219 239 120 434
283 625 522 126 157 188 255 299 472 67 132 104 194 113 192 8 -2 94 -33 191
-68 704 -260 1619 -539 2442 -744 2847 -711 5258 -779 6620 -187 589 255 1080
589 1407 956 293 328 464 674 540 1091 24 132 24 465 0 605 -36 209 -108 429
-200 611 -51 101 -165 268 -236 344 l-60 65 58 -118 c161 -323 242 -741 213
-1089 -23 -263 -76 -459 -186 -683 -242 -492 -699 -906 -1374 -1244 -526 -263
-1000 -387 -1752 -457 -234 -22 -1026 -30 -1342 -15 -1654 82 -3688 484 -5538
1095 -240 79 -634 217 -642 225 -4 3 6 50 22 103 22 76 340 1551 340 1581 0 4
130 7 290 7 l289 0 11 43 c6 23 22 83 36 133 13 51 24 97 24 103 0 8 -83 11
-290 11 -236 0 -290 3 -290 13 0 8 29 153 64 323 35 170 69 334 75 364 l12 56
182 -23 c228 -28 551 -58 862 -80 305 -22 1383 -25 1650 -5 423 31 833 82
1157 143 804 150 1500 417 1992 763 78 56 241 195 226 195 -3 0 -41 -23 -85
-51z m-9847 -2729 c145 -15 282 -46 427 -94 167 -56 277 -107 500 -235 225
-129 658 -350 920 -471 199 -91 636 -280 728 -314 59 -22 60 -14 -26 -215
-206 -477 -487 -755 -905 -894 -420 -140 -970 -122 -1492 50 -269 88 -506 217
-701 380 -319 266 -502 642 -502 1034 -1 151 18 243 74 355 144 292 532 453
977 404z"/>
<path d="M13239 10399 c-181 -27 -291 -219 -233 -405 24 -80 105 -162 183
-187 151 -48 308 17 376 157 29 60 36 150 16 222 -22 81 -100 169 -176 198
-37 14 -120 22 -166 15z"/>
<path d="M14640 10353 c-166 -20 -504 -73 -510 -80 -4 -4 -47 -195 -94 -423
-48 -228 -143 -680 -211 -1005 -68 -324 -127 -610 -132 -635 -7 -39 -17 -51
-73 -97 -36 -30 -98 -70 -138 -90 -62 -31 -82 -36 -134 -35 -98 3 -160 45
-173 118 -6 41 10 133 95 539 133 632 190 911 190 923 0 9 -67 12 -272 12
l-273 0 -32 -153 c-244 -1162 -263 -1257 -263 -1323 0 -36 -5 -47 -37 -74 -61
-54 -137 -84 -194 -77 -92 11 -129 58 -129 166 0 33 24 173 56 322 112 532
124 595 124 646 0 132 -52 254 -151 355 -152 155 -325 177 -555 69 -83 -39
-214 -121 -263 -165 l-23 -21 -26 35 c-94 126 -220 208 -334 217 -123 9 -288
-46 -443 -150 -38 -26 -70 -45 -72 -43 -2 2 5 46 15 100 l19 96 -273 0 c-251
0 -273 -1 -278 -17 -7 -24 -62 -285 -256 -1223 -28 -135 -55 -255 -60 -268 -6
-14 -35 -35 -75 -54 -105 -49 -215 -38 -275 27 -22 24 -25 35 -23 98 0 43 22
172 53 317 28 135 64 308 80 385 16 77 39 185 50 240 47 221 100 480 100 487
0 5 -124 8 -275 8 -213 0 -275 -3 -275 -12 0 -7 -5 -30 -10 -50 l-11 -37 -35
24 c-63 43 -143 67 -224 68 -563 6 -917 -439 -991 -1246 -27 -293 5 -464 109
-579 73 -81 175 -126 307 -135 107 -7 183 8 285 58 72 35 101 58 186 144 l101
103 22 -54 c57 -135 181 -211 377 -228 128 -12 248 30 395 138 41 30 75 53 77
51 4 -4 -27 -160 -35 -182 -4 -11 45 -13 273 -11 l278 3 22 110 c13 61 41 198
64 305 22 107 65 312 95 455 135 651 146 700 163 714 40 31 127 64 186 68 89
6 141 -22 179 -99 39 -78 38 -148 -8 -363 -20 -93 -42 -201 -50 -240 -7 -38
-30 -146 -50 -240 -20 -93 -40 -190 -45 -215 -5 -25 -29 -143 -55 -263 -25
-120 -45 -223 -45 -228 0 -5 114 -9 275 -9 l275 0 5 23 c3 12 27 130 54 262
67 324 154 744 196 945 35 167 42 253 26 323 l-9 39 62 29 c141 66 254 44 308
-60 23 -43 28 -66 28 -121 0 -74 -2 -88 -85 -485 -31 -148 -63 -304 -72 -345
-24 -120 -22 -261 6 -348 54 -166 199 -253 425 -255 69 0 103 5 143 20 70 28
173 98 260 177 39 36 73 66 76 66 2 0 12 -20 22 -45 22 -60 97 -135 165 -167
92 -43 230 -63 326 -48 113 18 274 117 451 277 l82 74 6 -28 c41 -196 153
-297 360 -322 207 -25 350 41 621 286 l81 73 7 -49 c9 -67 58 -162 108 -206
80 -73 229 -117 368 -111 114 6 256 80 428 225 51 44 72 56 72 44 -1 -10 -11
-67 -23 -128 l-23 -110 -134 -45 c-277 -94 -413 -188 -479 -330 -145 -313 63
-631 413 -630 185 1 326 57 445 178 148 150 187 247 281 702 l22 105 161 53
c276 91 510 216 620 331 63 66 72 99 37 144 -42 53 -95 43 -176 -33 -64 -60
-159 -123 -284 -185 -101 -51 -310 -138 -317 -132 -3 4 36 199 132 652 20 94
40 190 45 215 34 171 181 867 185 878 3 9 -55 12 -273 12 l-277 0 -18 -87
c-10 -49 -57 -270 -103 -493 -47 -223 -105 -502 -130 -620 -25 -118 -47 -222
-50 -231 -7 -23 -109 -97 -183 -132 -74 -35 -150 -39 -218 -12 -103 41 -103
83 11 625 48 228 107 510 131 625 24 116 48 230 54 255 6 25 11 51 11 58 0 9
-62 12 -275 12 -151 0 -275 -3 -275 -6 0 -3 -34 -169 -75 -368 -42 -198 -105
-503 -141 -676 -35 -173 -67 -325 -69 -338 -7 -30 -144 -138 -223 -175 -146
-68 -302 -13 -302 107 0 15 36 201 81 414 155 748 210 1008 229 1097 22 101
150 716 150 722 0 1 -3 2 -7 1 -5 0 -24 -3 -43 -5z m-5687 -1013 c94 -35 94
-36 59 -202 -28 -128 -198 -951 -208 -1004 -6 -33 -134 -165 -179 -185 -103
-47 -216 1 -265 113 -53 123 -15 505 81 795 42 130 82 215 144 309 63 94 108
137 179 170 63 29 119 30 189 4z m6697 -1824 c0 -22 -48 -248 -64 -299 -34
-112 -110 -198 -186 -212 -46 -8 -117 28 -148 75 -20 29 -23 43 -18 83 16 143
120 251 318 332 94 39 98 40 98 21z"/>
</g>
</svg>
